<svg xmlns="http://www.w3.org/2000/svg" xmlns:svg="http://www.w3.org/2000/svg" id="svg4460" width="24" height="24" version="1.1"><metadata id="metadata4465"/><g id="layer1" transform="translate(0,-1028.3622)"><rect id="rect3819" width="17.326" height="7.952" x="5.008" y="1036.221" fill="none" stroke="#474747" stroke-dasharray="none" stroke-linecap="round" stroke-linejoin="round" stroke-miterlimit="4" stroke-opacity="1" stroke-width="1.334" ry=".388"/><rect id="rect3841" width="20.21" height="4.468" x="2.019" y="1040.374" fill="#474747" fill-opacity="1" stroke="none"/><path id="path3839" fill="none" stroke="#474747" stroke-dasharray="none" stroke-linecap="round" stroke-linejoin="round" stroke-miterlimit="4" stroke-opacity="1" stroke-width="1.144" d="m 2.5239261,1036.1426 c -1.1362769,5.6181 -0.8027954,5.2172 -0.8382136,8.1612 l 3.5827761,-0.019 0.7595011,-1.2889 0.9114011,-0.5562 1.0126681,-0.2022 1.1139348,0.1518 0.1518995,-6.2691 c -0.6533213,-0.021 -5.9804379,0.02 -6.658164,0.021 z"/><path id="path3037-4-7-6-8" fill="#fff" fill-opacity="1" stroke="#474747" stroke-dasharray="none" stroke-miterlimit="4" stroke-opacity="1" stroke-width="2.783" d="m -6.2755728,15.558912 a 4.6403885,4.6403885 0 1 1 -9.2807772,0 4.6403885,4.6403885 0 1 1 9.2807772,0 z" transform="matrix(0.29672221,0,0,0.29672221,22.364294,1040.5197)"/><path id="path3037-4-7-6-8-0" fill="#fff" fill-opacity="1" stroke="#474747" stroke-dasharray="none" stroke-miterlimit="4" stroke-opacity="1" stroke-width="2.783" d="m -6.2755728,15.558912 a 4.6403885,4.6403885 0 1 1 -9.2807772,0 4.6403885,4.6403885 0 1 1 9.2807772,0 z" transform="matrix(0.29672221,0,0,0.29672221,8.8239299,1040.5179)"/><rect id="rect3841-4" width="17.071" height="4.468" x="4.732" y="1036.153" fill="#474747" fill-opacity="1" stroke="none"/><rect id="rect3841-9-0-4-57" width="4.561" height="3.708" x="5.548" y="1036.697" fill="#fff" fill-opacity="1" stroke="none"/><rect id="rect3841-9-0-4-57-8" width="4.598" height="3.708" x="11.389" y="1036.685" fill="#fff" fill-opacity="1" stroke="none"/><rect id="rect3841-9-0-4-57-0" width="4.447" height="3.708" x="17.159" y="1036.695" fill="#fff" fill-opacity="1" stroke="none"/></g></svg>